<?xml version="1.0" encoding="UTF-8" standalone="no"?>
<!-- Created with Inkscape (http://www.inkscape.org/) -->

<svg
   width="1024"
   height="512"
   viewBox="0 0 1024 512"
   version="1.1"
   id="svg5"
   inkscape:version="1.1.2 (0a00cf5339, 2022-02-04, custom)"
   sodipodi:docname="go_blue_text.svg"
   xmlns:inkscape="http://www.inkscape.org/namespaces/inkscape"
   xmlns:sodipodi="http://sodipodi.sourceforge.net/DTD/sodipodi-0.dtd"
   xmlns="http://www.w3.org/2000/svg"
   xmlns:svg="http://www.w3.org/2000/svg">
  <sodipodi:namedview
     id="namedview7"
     pagecolor="#ffffff"
     bordercolor="#666666"
     borderopacity="1.0"
     inkscape:pageshadow="2"
     inkscape:pageopacity="0.0"
     inkscape:pagecheckerboard="0"
     inkscape:document-units="px"
     showgrid="true"
     width="1024px"
     inkscape:zoom="0.81152344"
     inkscape:cx="418.9651"
     inkscape:cy="136.77978"
     inkscape:window-width="1920"
     inkscape:window-height="1017"
     inkscape:window-x="-8"
     inkscape:window-y="-8"
     inkscape:window-maximized="1"
     inkscape:current-layer="layer1">
    <inkscape:grid
       type="xygrid"
       id="grid824"
       spacingx="32"
       spacingy="32" />
  </sodipodi:namedview>
  <defs
     id="defs2" />
  <g
     inkscape:label="Слой 1"
     inkscape:groupmode="layer"
     id="layer1">
    <path
       style="fill:#587aaf;stroke:none;stroke-width:1px;stroke-linecap:butt;stroke-linejoin:miter;stroke-opacity:1;fill-opacity:1"
       d="M 0,0 256,256 0,512 H 256 L 512,256 256,0 Z"
       id="path859" />
    <path
       style="fill:#587aaf;stroke:none;stroke-width:1px;stroke-linecap:butt;stroke-linejoin:miter;stroke-opacity:1;fill-opacity:1"
       d="M 128,256 0,128 v 256 z"
       id="path861" />
    <path
       style="fill:#587aaf;stroke:none;stroke-width:1px;stroke-linecap:butt;stroke-linejoin:miter;stroke-opacity:1;fill-opacity:1"
       d="M 384,0 512,128 V 0 Z"
       id="path867" />
    <path
       style="fill:#587aaf;stroke:none;stroke-width:1px;stroke-linecap:butt;stroke-linejoin:miter;stroke-opacity:1;fill-opacity:1"
       d="M 512,512 V 384 L 384,512 Z"
       id="path869" />
    <path
       id="text2451"
       style="font-style:normal;font-variant:normal;font-weight:normal;font-stretch:normal;font-size:146.667px;line-height:1.25;font-family:wipeoutfusion;-inkscape-font-specification:wipeoutfusion;fill:#587aaf;fill-opacity:1;stroke:none"
       d="m 673.03257,11.507 c -7.04003,0 -13.0524,2.491835 -18.03909,7.478511 -4.98669,4.888897 -7.48048,10.805801 -7.48048,17.748035 v 31.533182 c 0,11.733352 4.20438,21.803967 12.6133,30.212871 8.40892,8.408901 18.57893,12.661981 30.50786,12.759751 h 35.34577 c -1.46668,4.98668 -4.79044,7.48047 -9.97268,7.48047 v 15.10742 c 7.04003,0 13.0524,-2.49379 18.03909,-7.48047 4.98669,-4.8889 7.48048,-10.85255 7.48048,-17.89257 V 36.733546 c 0,-6.942234 -2.49379,-12.859138 -7.48048,-17.748035 C 729.05965,13.998835 723.04728,11.507 716.00725,11.507 Z m 112.93377,0 c -7.04002,0 -13.0524,2.491835 -18.03909,7.478511 -4.98668,4.888897 -7.48048,10.805801 -7.48048,17.748035 v 31.533182 c 0,11.733352 4.20439,21.852673 12.6133,30.359351 8.50671,8.408901 18.67671,12.613271 30.50787,12.613271 h 25.37308 c 7.04004,0 13.05241,-2.44313 18.0391,-7.33202 4.98668,-4.986671 7.48047,-10.952286 7.48047,-17.894521 V 36.733546 c 0,-6.942234 -2.49379,-12.859138 -7.48047,-17.748035 C 841.99343,13.998835 835.98106,11.507 828.94102,11.507 Z m 87.41422,0.292969 V 85.573356 H 888.488 V 11.799969 Z m -200.34799,14.81249 h 42.97468 c 2.93335,0 5.37648,1.026739 7.33204,3.080076 2.05335,1.955559 3.08009,4.303228 3.08009,7.041011 v 59.40035 h -35.78522 c -7.62669,0 -14.22745,-2.739273 -19.80081,-8.214838 -5.47558,-5.475564 -8.21291,-12.025651 -8.21291,-19.65233 V 36.733546 c 0,-2.737783 0.97804,-5.085452 2.93361,-7.041011 2.05333,-2.053337 4.54518,-3.080076 7.47852,-3.080076 z m 112.93377,0 h 42.97468 c 2.93335,0 5.37648,1.026739 7.33205,3.080076 2.05334,1.955559 3.08008,4.303228 3.08008,7.041011 v 49.279263 c 0,2.737783 -1.02674,5.134159 -3.08008,7.187495 -1.95557,1.95556 -4.3987,2.933592 -7.33205,2.933592 h -25.37308 c -7.72448,0 -14.32524,-2.739273 -19.80081,-8.214838 -5.47558,-5.475564 -8.2129,-12.025651 -8.2129,-19.65233 V 36.733546 c 0,-2.737783 0.97803,-5.085452 2.93359,-7.041011 2.05335,-2.053337 4.54518,-3.080076 7.47852,-3.080076 z m 87.41422,69.374954 V 111.38584 H 888.488 V 95.987413 Z M 673.03257,194.84086 c -7.04003,0 -13.0524,2.49183 -18.03909,7.47851 -4.98669,4.8889 -7.48048,10.8058 -7.48048,17.74804 v 31.53318 c 0,11.73335 4.20438,21.80397 12.6133,30.21287 8.40892,8.4089 18.57893,12.66198 30.50786,12.75976 h 35.34577 c -1.46668,4.98667 -4.79044,7.48046 -9.97268,7.48046 v 15.10741 c 7.04003,0 13.0524,-2.49379 18.03909,-7.48046 4.98669,-4.8889 7.48048,-10.85451 7.48048,-17.89452 v -71.7187 c 0,-6.94224 -2.49379,-12.85914 -7.48048,-17.74804 -4.98669,-4.98668 -10.99906,-7.47851 -18.03909,-7.47851 z m 112.93377,0 c -7.04002,0 -13.0524,2.49183 -18.03909,7.47851 -4.98668,4.8889 -7.48048,10.8058 -7.48048,17.74804 v 31.53318 c 0,11.73335 4.20439,21.85267 12.6133,30.35936 8.50671,8.4089 18.67671,12.61327 30.50787,12.61327 h 25.37308 c 7.04004,0 13.05241,-2.44313 18.0391,-7.33203 4.98668,-4.98667 7.48047,-10.95228 7.48047,-17.89452 v -49.27926 c 0,-6.94224 -2.49379,-12.85914 -7.48047,-17.74804 -4.98669,-4.98668 -10.99906,-7.47851 -18.0391,-7.47851 z m 87.41422,0.29297 v 73.77338 H 888.488 v -73.77338 z m -200.34799,14.81249 h 42.97468 c 2.93335,0 5.37648,1.02674 7.33204,3.08007 2.05335,1.95556 3.08009,4.30324 3.08009,7.04102 v 59.40035 h -35.78522 c -7.62669,0 -14.22745,-2.73927 -19.80081,-8.21484 -5.47558,-5.47556 -8.21291,-12.02565 -8.21291,-19.65233 v -31.53318 c 0,-2.73778 0.97804,-5.08546 2.93361,-7.04102 2.05333,-2.05333 4.54518,-3.08007 7.47852,-3.08007 z m 112.93377,0 h 42.97468 c 2.93335,0 5.37648,1.02674 7.33205,3.08007 2.05334,1.95556 3.08008,4.30324 3.08008,7.04102 v 49.27926 c 0,2.73778 -1.02674,5.13416 -3.08008,7.1875 -1.95557,1.95556 -4.3987,2.93359 -7.33205,2.93359 h -25.37308 c -7.72448,0 -14.32524,-2.73927 -19.80081,-8.21484 -5.47558,-5.47556 -8.2129,-12.02565 -8.2129,-19.65233 v -31.53318 c 0,-2.73778 0.97803,-5.08546 2.93359,-7.04102 2.05335,-2.05333 4.54518,-3.08007 7.47852,-3.08007 z m 87.41422,69.373 V 294.7197 H 888.488 v -15.40038 z m -200.34799,98.85345 c -7.04003,0 -13.0524,2.49379 -18.03909,7.48047 -4.98669,4.88889 -7.48048,10.8058 -7.48048,17.74802 v 31.53319 c 0,11.73336 4.20438,21.80397 12.6133,30.21287 8.40892,8.40891 18.57893,12.66199 30.50786,12.75976 h 35.34577 c -1.46668,4.98667 -4.79044,7.48046 -9.97268,7.48046 V 500.493 c 7.04003,0 13.0524,-2.49184 18.03909,-7.4785 4.98669,-4.8889 7.48048,-10.85452 7.48048,-17.89453 v -71.71871 c 0,-6.94222 -2.49379,-12.85913 -7.48048,-17.74802 -4.98669,-4.98668 -10.99906,-7.48047 -18.03909,-7.48047 z m 112.93377,0 c -7.04002,0 -13.0524,2.49379 -18.03909,7.48047 -4.98668,4.88889 -7.48048,10.8058 -7.48048,17.74802 v 31.53319 c 0,11.73336 4.20439,21.85268 12.6133,30.35935 8.50671,8.40891 18.67671,12.61328 30.50787,12.61328 h 25.37308 c 7.04004,0 13.05241,-2.44508 18.0391,-7.33398 4.98668,-4.98668 7.48047,-10.95033 7.48047,-17.89257 v -49.27927 c 0,-6.94222 -2.49379,-12.85913 -7.48047,-17.74802 -4.98669,-4.98668 -10.99906,-7.48047 -18.0391,-7.48047 z m 87.41422,0.29492 v 73.77339 H 888.488 v -73.77339 z m -200.34799,14.81249 h 42.97468 c 2.93335,0 5.37648,1.02674 7.33204,3.08008 2.05335,1.95556 3.08009,4.30323 3.08009,7.041 v 59.39841 h -35.78522 c -7.62669,0 -14.22745,-2.73732 -19.80081,-8.21289 -5.47558,-5.47557 -8.21291,-12.02565 -8.21291,-19.65233 v -31.53319 c 0,-2.73777 0.97804,-5.08544 2.93361,-7.041 2.05333,-2.05334 4.54518,-3.08008 7.47852,-3.08008 z m 112.93377,0 h 42.97468 c 2.93335,0 5.37648,1.02674 7.33205,3.08008 2.05334,1.95556 3.08008,4.30323 3.08008,7.041 v 49.27927 c 0,2.73779 -1.02674,5.13416 -3.08008,7.1875 -1.95557,1.95556 -4.3987,2.93164 -7.33205,2.93164 h -25.37308 c -7.72448,0 -14.32524,-2.73732 -19.80081,-8.21289 -5.47558,-5.47557 -8.2129,-12.02565 -8.2129,-19.65233 v -31.53319 c 0,-2.73777 0.97803,-5.08544 2.93359,-7.041 2.05335,-2.05334 4.54518,-3.08008 7.47852,-3.08008 z m 87.41422,69.37301 v 15.40038 H 888.488 v -15.40038 z" />
  </g>
</svg>
